# Blender 4.5.3 LTS
# www.blender.org
mtllib base.mtl
o Grid
v -10.000314 10.000314 0.000000
v -10.000314 8.000251 0.000000
v -10.000314 6.000188 0.000000
v -10.000314 4.000125 0.000000
v -10.000314 2.000063 0.000000
v -10.000314 0.000000 0.000000
v -10.000314 -2.000063 0.000000
v -10.000314 -4.000125 0.000000
v -10.000314 -6.000188 0.000000
v -10.000314 -8.000252 0.000000
v -10.000314 -10.000314 0.000000
v -8.000251 10.000314 0.000000
v -8.000251 8.000251 0.000000
v -8.000251 6.000188 0.000000
v -8.000251 4.000125 0.000000
v -8.000251 2.000063 0.000000
v -8.000251 0.000000 0.000000
v -8.000251 -2.000063 0.000000
v -8.000251 -4.000125 0.000000
v -8.000251 -6.000188 0.000000
v -8.000251 -8.000252 0.000000
v -8.000251 -10.000314 0.000000
v -6.000188 10.000314 0.000000
v -6.000188 8.000251 0.000000
v -6.000188 6.000188 0.000000
v -6.000188 4.000125 0.000000
v -6.000188 2.000063 0.000000
v -6.000188 0.000000 0.000000
v -6.000188 -2.000063 0.000000
v -6.000188 -4.000125 0.000000
v -6.000188 -6.000188 0.000000
v -6.000188 -8.000252 0.000000
v -6.000188 -10.000314 0.000000
v -4.000125 10.000314 0.000000
v -4.000125 8.000251 0.000000
v -4.000125 6.000188 0.000000
v -4.000125 4.000125 0.000000
v -4.000125 2.000063 0.000000
v -4.000125 0.000000 0.000000
v -4.000125 -2.000063 0.000000
v -4.000125 -4.000125 0.000000
v -4.000125 -6.000188 0.000000
v -4.000125 -8.000252 0.000000
v -4.000125 -10.000314 0.000000
v -2.000063 10.000314 0.000000
v -2.000063 8.000251 0.000000
v -2.000063 6.000188 0.000000
v -2.000063 4.000125 0.000000
v -2.000063 2.000063 0.000000
v -2.000063 0.000000 0.000000
v -2.000063 -2.000063 0.000000
v -2.000063 -4.000125 0.000000
v -2.000063 -6.000188 0.000000
v -2.000063 -8.000252 0.000000
v -2.000063 -10.000314 0.000000
v 0.000000 10.000314 0.000000
v 0.000000 8.000251 0.000000
v 0.000000 6.000188 0.000000
v 0.000000 4.000125 0.000000
v 0.000000 2.000063 0.000000
v 0.000000 0.000000 0.000000
v 0.000000 -2.000063 0.000000
v 0.000000 -4.000125 0.000000
v 0.000000 -6.000188 0.000000
v 0.000000 -8.000252 0.000000
v 0.000000 -10.000314 0.000000
v 2.000063 10.000314 0.000000
v 2.000063 8.000251 0.000000
v 2.000063 6.000188 0.000000
v 2.000063 4.000125 0.000000
v 2.000063 2.000063 0.000000
v 2.000063 0.000000 0.000000
v 2.000063 -2.000063 0.000000
v 2.000063 -4.000125 0.000000
v 2.000063 -6.000188 0.000000
v 2.000063 -8.000252 0.000000
v 2.000063 -10.000314 0.000000
v 4.000125 10.000314 0.000000
v 4.000125 8.000251 0.000000
v 4.000125 6.000188 0.000000
v 4.000125 4.000125 0.000000
v 4.000125 2.000063 0.000000
v 4.000125 0.000000 0.000000
v 4.000125 -2.000063 0.000000
v 4.000125 -4.000125 0.000000
v 4.000125 -6.000188 0.000000
v 4.000125 -8.000252 0.000000
v 4.000125 -10.000314 0.000000
v 6.000188 10.000314 0.000000
v 6.000188 8.000251 0.000000
v 6.000188 6.000188 0.000000
v 6.000188 4.000125 0.000000
v 6.000188 2.000063 0.000000
v 6.000188 0.000000 0.000000
v 6.000188 -2.000063 0.000000
v 6.000188 -4.000125 0.000000
v 6.000188 -6.000188 0.000000
v 6.000188 -8.000252 0.000000
v 6.000188 -10.000314 0.000000
v 8.000252 10.000314 0.000000
v 8.000252 8.000251 0.000000
v 8.000252 6.000188 0.000000
v 8.000252 4.000125 0.000000
v 8.000252 2.000063 0.000000
v 8.000252 0.000000 0.000000
v 8.000252 -2.000063 0.000000
v 8.000252 -4.000125 0.000000
v 8.000252 -6.000188 0.000000
v 8.000252 -8.000252 0.000000
v 8.000252 -10.000314 0.000000
v 10.000314 10.000314 0.000000
v 10.000314 8.000251 0.000000
v 10.000314 6.000188 0.000000
v 10.000314 4.000125 0.000000
v 10.000314 2.000063 0.000000
v 10.000314 0.000000 0.000000
v 10.000314 -2.000063 0.000000
v 10.000314 -4.000125 0.000000
v 10.000314 -6.000188 0.000000
v 10.000314 -8.000252 0.000000
v 10.000314 -10.000314 0.000000
vn -0.0000 -0.0000 1.0000
vt 0.000000 0.000000
vt 0.100000 0.000000
vt 0.100000 0.100000
vt 0.000000 0.100000
vt 0.200000 0.000000
vt 0.200000 0.100000
vt 0.300000 0.000000
vt 0.300000 0.100000
vt 0.200000 0.100000
vt 0.400000 0.000000
vt 0.400000 0.100000
vt 0.500000 0.000000
vt 0.500000 0.100000
vt 0.600000 0.000000
vt 0.600000 0.100000
vt 0.700000 0.000000
vt 0.700000 0.100000
vt 0.800000 0.000000
vt 0.800000 0.100000
vt 0.900000 0.000000
vt 0.900000 0.100000
vt 1.000000 0.000000
vt 1.000000 0.100000
vt 0.100000 0.200000
vt 0.000000 0.200000
vt 0.200000 0.200000
vt 0.300000 0.200000
vt 0.200000 0.200000
vt 0.400000 0.200000
vt 0.500000 0.200000
vt 0.600000 0.200000
vt 0.700000 0.200000
vt 0.800000 0.200000
vt 0.900000 0.200000
vt 1.000000 0.200000
vt 0.000000 0.200000
vt 0.100000 0.200000
vt 0.100000 0.300000
vt 0.000000 0.300000
vt 0.200000 0.200000
vt 0.200000 0.300000
vt 0.300000 0.200000
vt 0.300000 0.300000
vt 0.200000 0.300000
vt 0.400000 0.200000
vt 0.400000 0.300000
vt 0.500000 0.200000
vt 0.500000 0.300000
vt 0.600000 0.200000
vt 0.600000 0.300000
vt 0.700000 0.200000
vt 0.700000 0.300000
vt 0.800000 0.200000
vt 0.800000 0.300000
vt 0.900000 0.200000
vt 0.900000 0.300000
vt 1.000000 0.200000
vt 1.000000 0.300000
vt 0.100000 0.400000
vt 0.000000 0.400000
vt 0.200000 0.400000
vt 0.300000 0.400000
vt 0.200000 0.400000
vt 0.400000 0.400000
vt 0.500000 0.400000
vt 0.600000 0.400000
vt 0.700000 0.400000
vt 0.800000 0.400000
vt 0.900000 0.400000
vt 1.000000 0.400000
vt 0.100000 0.500000
vt 0.000000 0.500000
vt 0.200000 0.500000
vt 0.300000 0.500000
vt 0.200000 0.500000
vt 0.400000 0.500000
vt 0.500000 0.500000
vt 0.600000 0.500000
vt 0.700000 0.500000
vt 0.800000 0.500000
vt 0.900000 0.500000
vt 1.000000 0.500000
vt 0.100000 0.600000
vt 0.000000 0.600000
vt 0.200000 0.600000
vt 0.300000 0.600000
vt 0.200000 0.600000
vt 0.400000 0.600000
vt 0.500000 0.600000
vt 0.600000 0.600000
vt 0.700000 0.600000
vt 0.800000 0.600000
vt 0.900000 0.600000
vt 1.000000 0.600000
vt 0.100000 0.700000
vt 0.000000 0.700000
vt 0.200000 0.700000
vt 0.300000 0.700000
vt 0.200000 0.700000
vt 0.400000 0.700000
vt 0.500000 0.700000
vt 0.600000 0.700000
vt 0.700000 0.700000
vt 0.800000 0.700000
vt 0.900000 0.700000
vt 1.000000 0.700000
vt 0.100000 0.800000
vt 0.000000 0.800000
vt 0.200000 0.800000
vt 0.300000 0.800000
vt 0.200000 0.800000
vt 0.400000 0.800000
vt 0.500000 0.800000
vt 0.600000 0.800000
vt 0.700000 0.800000
vt 0.800000 0.800000
vt 0.900000 0.800000
vt 1.000000 0.800000
vt 0.100000 0.900000
vt 0.000000 0.900000
vt 0.200000 0.900000
vt 0.300000 0.900000
vt 0.200000 0.900000
vt 0.400000 0.900000
vt 0.500000 0.900000
vt 0.600000 0.900000
vt 0.700000 0.900000
vt 0.800000 0.900000
vt 0.900000 0.900000
vt 1.000000 0.900000
vt 0.100000 1.000000
vt 0.000000 1.000000
vt 0.200000 1.000000
vt 0.300000 1.000000
vt 0.200000 1.000000
vt 0.400000 1.000000
vt 0.500000 1.000000
vt 0.600000 1.000000
vt 0.700000 1.000000
vt 0.800000 1.000000
vt 0.900000 1.000000
vt 1.000000 1.000000
s 0
f 1/1/1 2/2/1 13/3/1 12/4/1
f 2/2/1 3/5/1 14/6/1 13/3/1
f 3/5/1 4/7/1 15/8/1 14/9/1
f 4/7/1 5/10/1 16/11/1 15/8/1
f 5/10/1 6/12/1 17/13/1 16/11/1
f 6/12/1 7/14/1 18/15/1 17/13/1
f 7/14/1 8/16/1 19/17/1 18/15/1
f 8/16/1 9/18/1 20/19/1 19/17/1
f 9/18/1 10/20/1 21/21/1 20/19/1
f 10/20/1 11/22/1 22/23/1 21/21/1
f 12/4/1 13/3/1 24/24/1 23/25/1
f 13/3/1 14/6/1 25/26/1 24/24/1
f 14/6/1 15/8/1 26/27/1 25/28/1
f 15/8/1 16/11/1 27/29/1 26/27/1
f 16/11/1 17/13/1 28/30/1 27/29/1
f 17/13/1 18/15/1 29/31/1 28/30/1
f 18/15/1 19/17/1 30/32/1 29/31/1
f 19/17/1 20/19/1 31/33/1 30/32/1
f 20/19/1 21/21/1 32/34/1 31/33/1
f 21/21/1 22/23/1 33/35/1 32/34/1
f 23/36/1 24/37/1 35/38/1 34/39/1
f 24/37/1 25/40/1 36/41/1 35/38/1
f 25/40/1 26/42/1 37/43/1 36/44/1
f 26/42/1 27/45/1 38/46/1 37/43/1
f 27/45/1 28/47/1 39/48/1 38/46/1
f 28/47/1 29/49/1 40/50/1 39/48/1
f 29/49/1 30/51/1 41/52/1 40/50/1
f 30/51/1 31/53/1 42/54/1 41/52/1
f 31/53/1 32/55/1 43/56/1 42/54/1
f 32/55/1 33/57/1 44/58/1 43/56/1
f 34/39/1 35/38/1 46/59/1 45/60/1
f 35/38/1 36/41/1 47/61/1 46/59/1
f 36/41/1 37/43/1 48/62/1 47/63/1
f 37/43/1 38/46/1 49/64/1 48/62/1
f 38/46/1 39/48/1 50/65/1 49/64/1
f 39/48/1 40/50/1 51/66/1 50/65/1
f 40/50/1 41/52/1 52/67/1 51/66/1
f 41/52/1 42/54/1 53/68/1 52/67/1
f 42/54/1 43/56/1 54/69/1 53/68/1
f 43/56/1 44/58/1 55/70/1 54/69/1
f 45/60/1 46/59/1 57/71/1 56/72/1
f 46/59/1 47/61/1 58/73/1 57/71/1
f 47/61/1 48/62/1 59/74/1 58/75/1
f 48/62/1 49/64/1 60/76/1 59/74/1
f 49/64/1 50/65/1 61/77/1 60/76/1
f 50/65/1 51/66/1 62/78/1 61/77/1
f 51/66/1 52/67/1 63/79/1 62/78/1
f 52/67/1 53/68/1 64/80/1 63/79/1
f 53/68/1 54/69/1 65/81/1 64/80/1
f 54/69/1 55/70/1 66/82/1 65/81/1
f 56/72/1 57/71/1 68/83/1 67/84/1
f 57/71/1 58/73/1 69/85/1 68/83/1
f 58/73/1 59/74/1 70/86/1 69/87/1
f 59/74/1 60/76/1 71/88/1 70/86/1
f 60/76/1 61/77/1 72/89/1 71/88/1
f 61/77/1 62/78/1 73/90/1 72/89/1
f 62/78/1 63/79/1 74/91/1 73/90/1
f 63/79/1 64/80/1 75/92/1 74/91/1
f 64/80/1 65/81/1 76/93/1 75/92/1
f 65/81/1 66/82/1 77/94/1 76/93/1
f 67/84/1 68/83/1 79/95/1 78/96/1
f 68/83/1 69/85/1 80/97/1 79/95/1
f 69/85/1 70/86/1 81/98/1 80/99/1
f 70/86/1 71/88/1 82/100/1 81/98/1
f 71/88/1 72/89/1 83/101/1 82/100/1
f 72/89/1 73/90/1 84/102/1 83/101/1
f 73/90/1 74/91/1 85/103/1 84/102/1
f 74/91/1 75/92/1 86/104/1 85/103/1
f 75/92/1 76/93/1 87/105/1 86/104/1
f 76/93/1 77/94/1 88/106/1 87/105/1
f 78/96/1 79/95/1 90/107/1 89/108/1
f 79/95/1 80/97/1 91/109/1 90/107/1
f 80/97/1 81/98/1 92/110/1 91/111/1
f 81/98/1 82/100/1 93/112/1 92/110/1
f 82/100/1 83/101/1 94/113/1 93/112/1
f 83/101/1 84/102/1 95/114/1 94/113/1
f 84/102/1 85/103/1 96/115/1 95/114/1
f 85/103/1 86/104/1 97/116/1 96/115/1
f 86/104/1 87/105/1 98/117/1 97/116/1
f 87/105/1 88/106/1 99/118/1 98/117/1
f 89/108/1 90/107/1 101/119/1 100/120/1
f 90/107/1 91/109/1 102/121/1 101/119/1
f 91/109/1 92/110/1 103/122/1 102/123/1
f 92/110/1 93/112/1 104/124/1 103/122/1
f 93/112/1 94/113/1 105/125/1 104/124/1
f 94/113/1 95/114/1 106/126/1 105/125/1
f 95/114/1 96/115/1 107/127/1 106/126/1
f 96/115/1 97/116/1 108/128/1 107/127/1
f 97/116/1 98/117/1 109/129/1 108/128/1
f 98/117/1 99/118/1 110/130/1 109/129/1
f 100/120/1 101/119/1 112/131/1 111/132/1
f 101/119/1 102/121/1 113/133/1 112/131/1
f 102/121/1 103/122/1 114/134/1 113/135/1
f 103/122/1 104/124/1 115/136/1 114/134/1
f 104/124/1 105/125/1 116/137/1 115/136/1
f 105/125/1 106/126/1 117/138/1 116/137/1
f 106/126/1 107/127/1 118/139/1 117/138/1
f 107/127/1 108/128/1 119/140/1 118/139/1
f 108/128/1 109/129/1 120/141/1 119/140/1
f 109/129/1 110/130/1 121/142/1 120/141/1
o Icosphere
v 4.570069 -6.008160 1.651628
v 4.044343 -6.731767 2.204408
v 3.719419 -5.731771 2.204408
v 4.570069 -5.113733 2.204412
v 5.420718 -5.731771 2.204408
v 5.095794 -6.731767 2.204408
v 3.719419 -6.284548 3.098848
v 4.044343 -5.284553 3.098847
v 5.095794 -5.284553 3.098847
v 5.420718 -6.284548 3.098848
v 4.570069 -6.902586 3.098843
v 4.570069 -6.008160 3.651628
v 4.070074 -5.845704 1.800973
v 4.261057 -6.433482 1.800974
v 3.761057 -6.271029 2.125890
v 4.570069 -6.858808 2.125892
v 4.879080 -6.433482 1.800974
v 4.570069 -5.482430 1.800976
v 4.070072 -5.319970 2.125892
v 5.070064 -5.845704 1.800973
v 5.070066 -5.319970 2.125892
v 5.379080 -6.271029 2.125890
v 4.261056 -6.959218 2.651628
v 4.879081 -6.959218 2.651628
v 3.570069 -6.008160 2.651628
v 3.761052 -6.595945 2.651628
v 4.261056 -5.057102 2.651628
v 3.761052 -5.420374 2.651628
v 5.379086 -5.420374 2.651628
v 4.879081 -5.057102 2.651628
v 5.379086 -6.595945 2.651628
v 5.570069 -6.008160 2.651628
v 4.070072 -6.696349 3.177364
v 3.761057 -5.745291 3.177365
v 4.570069 -5.157512 3.177364
v 5.379080 -5.745291 3.177365
v 5.070066 -6.696349 3.177364
v 4.070074 -6.170615 3.502282
v 4.570069 -6.533889 3.502280
v 4.261057 -5.582837 3.502282
v 4.879080 -5.582837 3.502282
v 5.070064 -6.170615 3.502282
vn -0.3151 -0.1024 -0.9435
vn -0.2680 -0.7002 -0.6617
vn -0.1947 0.2680 -0.9435
vn 0.1947 0.2680 -0.9435
vn 0.3151 -0.1024 -0.9435
vn -0.2680 -0.9050 -0.3304
vn -0.9435 -0.0247 -0.3304
vn -0.3151 0.8897 -0.3304
vn 0.7488 0.5746 -0.3304
vn 0.7779 -0.5346 -0.3304
vn -0.5831 -0.8026 -0.1256
vn -0.9435 0.3066 -0.1256
vn -0.0000 0.9921 -0.1256
vn 0.9435 0.3066 -0.1256
vn 0.5831 -0.8026 -0.1256
vn -0.6284 -0.4089 0.6617
vn -0.5831 0.4713 0.6617
vn 0.2680 0.7002 0.6617
vn 0.7488 -0.0385 0.6617
vn 0.1947 -0.7240 0.6617
vn 0.1947 -0.2680 0.9435
vn 0.3568 -0.4911 0.7947
vn 0.6284 -0.4089 0.6617
vn 0.3151 0.1024 0.9435
vn 0.5773 0.1876 0.7947
vn 0.5831 0.4713 0.6617
vn -0.0000 0.3313 0.9435
vn -0.0000 0.6071 0.7947
vn -0.2680 0.7002 0.6617
vn -0.3151 0.1024 0.9435
vn -0.5773 0.1876 0.7947
vn -0.7488 -0.0385 0.6617
vn -0.1947 -0.2680 0.9435
vn -0.3568 -0.4911 0.7947
vn -0.1947 -0.7240 0.6617
vn 0.3151 -0.8897 0.3304
vn 0.5773 -0.7947 0.1876
vn 0.7488 -0.5746 0.3304
vn 0.9435 0.0247 0.3304
vn 0.9342 0.3035 0.1876
vn 0.7779 0.5346 0.3304
vn 0.2680 0.9050 0.3304
vn -0.0000 0.9822 0.1876
vn -0.2680 0.9050 0.3304
vn -0.7779 0.5346 0.3304
vn -0.9342 0.3035 0.1876
vn -0.9435 0.0247 0.3304
vn -0.7488 -0.5746 0.3304
vn -0.5773 -0.7947 0.1876
vn -0.3151 -0.8897 0.3304
vn 0.9435 -0.3066 0.1256
vn 0.9342 -0.3035 -0.1876
vn 0.9435 -0.0247 -0.3304
vn 0.5831 0.8026 0.1256
vn 0.5773 0.7947 -0.1876
vn 0.3151 0.8897 -0.3304
vn -0.5831 0.8026 0.1256
vn -0.5773 0.7947 -0.1876
vn -0.7488 0.5746 -0.3304
vn -0.9435 -0.3066 0.1256
vn -0.9342 -0.3035 -0.1876
vn -0.7779 -0.5346 -0.3304
vn -0.0000 -0.9921 0.1256
vn -0.0000 -0.9822 -0.1876
vn 0.2680 -0.9050 -0.3304
vn 0.5831 -0.4713 -0.6617
vn 0.5773 -0.1876 -0.7947
vn 0.7488 0.0385 -0.6617
vn 0.6284 0.4089 -0.6617
vn 0.3568 0.4911 -0.7947
vn 0.1947 0.7240 -0.6617
vn -0.1947 0.7240 -0.6617
vn -0.3568 0.4911 -0.7947
vn -0.6284 0.4089 -0.6617
vn 0.2680 -0.7002 -0.6617
vn -0.0000 -0.6071 -0.7947
vn -0.0000 -0.3313 -0.9435
vn -0.7488 0.0385 -0.6617
vn -0.5773 -0.1876 -0.7947
vn -0.5831 -0.4713 -0.6617
vt 0.181819 0.000000
vt 0.227273 0.078731
vt 0.136365 0.078731
vt 0.272728 0.157461
vt 0.318182 0.078731
vt 0.363637 0.157461
vt 0.909091 0.000000
vt 0.954545 0.078731
vt 0.863636 0.078731
vt 0.727273 0.000000
vt 0.772727 0.078731
vt 0.681818 0.078731
vt 0.545455 0.000000
vt 0.590909 0.078731
vt 0.500000 0.078731
vt 0.318182 0.236191
vt 0.090910 0.157461
vt 0.181819 0.157461
vt 0.136365 0.236191
vt 0.818182 0.157461
vt 0.909091 0.157461
vt 0.863636 0.236191
vt 0.636364 0.157461
vt 0.727273 0.157461
vt 0.681818 0.236191
vt 0.454546 0.157461
vt 0.545455 0.157461
vt 0.500000 0.236191
vt 0.227273 0.236191
vt 0.045455 0.236191
vt 0.772727 0.236191
vt 0.590909 0.236191
vt 0.409092 0.236191
vt 0.181819 0.314921
vt 0.272728 0.314921
vt 0.227273 0.393651
vt 0.000000 0.314921
vt 0.090910 0.314921
vt 0.045455 0.393651
vt 0.727273 0.314921
vt 0.818182 0.314921
vt 0.772727 0.393651
vt 0.545455 0.314921
vt 0.636364 0.314921
vt 0.590909 0.393651
vt 0.363637 0.314921
vt 0.454546 0.314921
vt 0.409092 0.393651
vt 0.500000 0.393651
vt 0.454546 0.472382
vt 0.681818 0.393651
vt 0.636364 0.472382
vt 0.863636 0.393651
vt 0.818182 0.472382
vt 0.909091 0.314921
vt 0.136365 0.393651
vt 0.090910 0.472382
vt 0.318182 0.393651
vt 0.272728 0.472382
vt 0.954545 0.236191
vt 1.000000 0.157461
vt 0.409092 0.078731
vt 0.363637 0.000000
s 0
f 122/143/2 135/144/2 134/145/2
f 123/146/3 135/147/3 137/148/3
f 122/149/4 134/150/4 139/151/4
f 122/152/5 139/153/5 141/154/5
f 122/155/6 141/156/6 138/157/6
f 123/146/7 137/148/7 144/158/7
f 124/159/8 136/160/8 146/161/8
f 125/162/9 140/163/9 148/164/9
f 126/165/10 142/166/10 150/167/10
f 127/168/11 143/169/11 152/170/11
f 123/146/12 144/158/12 147/171/12
f 124/159/13 146/161/13 149/172/13
f 125/162/14 148/164/14 151/173/14
f 126/165/15 150/167/15 153/174/15
f 127/168/16 152/170/16 145/175/16
f 128/176/17 154/177/17 159/178/17
f 129/179/18 155/180/18 161/181/18
f 130/182/19 156/183/19 162/184/19
f 131/185/20 157/186/20 163/187/20
f 132/188/21 158/189/21 160/190/21
f 160/190/22 163/191/22 133/192/22
f 160/190/23 158/189/23 163/191/23
f 158/189/24 131/185/24 163/191/24
f 163/187/25 162/193/25 133/194/25
f 163/187/26 157/186/26 162/193/26
f 157/186/27 130/182/27 162/193/27
f 162/184/28 161/195/28 133/196/28
f 162/184/29 156/183/29 161/195/29
f 156/183/30 129/197/30 161/195/30
f 161/181/31 159/198/31 133/199/31
f 161/181/32 155/180/32 159/198/32
f 155/180/33 128/176/33 159/198/33
f 159/178/34 160/200/34 133/201/34
f 159/178/35 154/177/35 160/200/35
f 154/177/36 132/188/36 160/200/36
f 145/175/37 158/189/37 132/188/37
f 145/175/38 152/170/38 158/189/38
f 152/170/39 131/185/39 158/189/39
f 153/174/40 157/186/40 131/185/40
f 153/174/41 150/167/41 157/186/41
f 150/167/42 130/182/42 157/186/42
f 151/173/43 156/183/43 130/182/43
f 151/173/44 148/164/44 156/183/44
f 148/164/45 129/197/45 156/183/45
f 149/172/46 155/180/46 129/179/46
f 149/172/47 146/161/47 155/180/47
f 146/161/48 128/176/48 155/180/48
f 147/171/49 154/177/49 128/176/49
f 147/171/50 144/158/50 154/177/50
f 144/158/51 132/188/51 154/177/51
f 152/170/52 153/174/52 131/185/52
f 152/170/53 143/169/53 153/174/53
f 143/169/54 126/165/54 153/174/54
f 150/167/55 151/173/55 130/182/55
f 150/167/56 142/166/56 151/173/56
f 142/166/57 125/162/57 151/173/57
f 148/164/58 149/202/58 129/197/58
f 148/164/59 140/163/59 149/202/59
f 140/163/60 124/203/60 149/202/60
f 146/161/61 147/171/61 128/176/61
f 146/161/62 136/160/62 147/171/62
f 136/160/63 123/146/63 147/171/63
f 144/158/64 145/175/64 132/188/64
f 144/158/65 137/148/65 145/175/65
f 137/148/66 127/168/66 145/175/66
f 138/157/67 143/169/67 127/168/67
f 138/157/68 141/156/68 143/169/68
f 141/156/69 126/165/69 143/169/69
f 141/154/70 142/166/70 126/165/70
f 141/154/71 139/153/71 142/166/71
f 139/153/72 125/162/72 142/166/72
f 139/151/73 140/163/73 125/162/73
f 139/151/74 134/150/74 140/163/74
f 134/150/75 124/203/75 140/163/75
f 137/148/76 138/204/76 127/168/76
f 137/148/77 135/147/77 138/204/77
f 135/147/78 122/205/78 138/204/78
f 134/145/79 136/160/79 124/159/79
f 134/145/80 135/144/80 136/160/80
f 135/144/81 123/146/81 136/160/81
